<svg width="16" height="16" viewBox="0 0 16 16" fill="none" xmlns="http://www.w3.org/2000/svg">
<g clip-path="url(#clip0_15289_196)">
<path d="M6.58666 6.58667C6.39016 6.76977 6.23256 6.99057 6.12324 7.2359C6.01393 7.48123 5.95515 7.74607 5.95042 8.01461C5.94568 8.28315 5.99508 8.54989 6.09567 8.79893C6.19625 9.04796 6.34597 9.27419 6.53589 9.46411C6.72581 9.65402 6.95203 9.80374 7.20107 9.90433C7.4501 10.0049 7.71685 10.0543 7.98539 10.0496C8.25393 10.0448 8.51876 9.98606 8.76409 9.87675C9.00943 9.76744 9.23023 9.60983 9.41333 9.41334" stroke="#D0D5DD" stroke-width="1.33" stroke-linecap="round" stroke-linejoin="round"/>
<path d="M6.58666 6.58667C6.39016 6.76977 6.23256 6.99057 6.12324 7.2359C6.01393 7.48123 5.95515 7.74607 5.95042 8.01461C5.94568 8.28315 5.99508 8.54989 6.09567 8.79893C6.19625 9.04796 6.34597 9.27419 6.53589 9.46411C6.72581 9.65402 6.95203 9.80374 7.20107 9.90433C7.4501 10.0049 7.71685 10.0543 7.98539 10.0496C8.25393 10.0448 8.51876 9.98606 8.76409 9.87675C9.00943 9.76744 9.23023 9.60983 9.41333 9.41334" stroke="#D0D5DD" stroke-width="1.33" stroke-linecap="round" stroke-linejoin="round"/>
<path d="M7.15334 3.38671C7.43421 3.35171 7.71696 3.3339 8 3.33337C12.6667 3.33337 14.6667 8.00004 14.6667 8.00004C14.3686 8.63812 13.9948 9.238 13.5533 9.78671" stroke="#D0D5DD" stroke-width="1.33" stroke-linecap="round" stroke-linejoin="round"/>
<path d="M7.15334 3.38671C7.43421 3.35171 7.71696 3.3339 8 3.33337C12.6667 3.33337 14.6667 8.00004 14.6667 8.00004C14.3686 8.63812 13.9948 9.238 13.5533 9.78671" stroke="#D0D5DD" stroke-width="1.33" stroke-linecap="round" stroke-linejoin="round"/>
<path d="M4.40666 4.40662C3.08083 5.3097 2.01991 6.55012 1.33333 7.99995C1.33333 7.99995 3.33333 12.6666 8 12.6666C9.27727 12.67 10.5272 12.2967 11.5933 11.5933" stroke="#D0D5DD" stroke-width="1.33" stroke-linecap="round" stroke-linejoin="round"/>
<path d="M4.40666 4.40662C3.08083 5.3097 2.01991 6.55012 1.33333 7.99995C1.33333 7.99995 3.33333 12.6666 8 12.6666C9.27727 12.67 10.5272 12.2967 11.5933 11.5933" stroke="#D0D5DD" stroke-width="1.33" stroke-linecap="round" stroke-linejoin="round"/>
<path d="M1.33333 1.33337L14.6667 14.6667" stroke="#D0D5DD" stroke-width="1.33" stroke-linecap="round" stroke-linejoin="round"/>
<path d="M1.33333 1.33337L14.6667 14.6667" stroke="#D0D5DD" stroke-width="1.33" stroke-linecap="round" stroke-linejoin="round"/>
</g>
<defs>
<clipPath id="clip0_15289_196">
<rect width="16" height="16" fill="white"/>
</clipPath>
</defs>
</svg>
